<?xml version="1.0" encoding="utf-8"?>
<!-- Generator: Adobe Illustrator 21.1.0, SVG Export Plug-In . SVG Version: 6.00 Build 0)  -->
<svg version="1.1" id="Layer_1" xmlns="http://www.w3.org/2000/svg" xmlns:xlink="http://www.w3.org/1999/xlink" x="0px" y="0px"
	 viewBox="0 0 160 100" style="enable-background:new 0 0 160 100;" xml:space="preserve">
<style type="text/css">
	.st0{opacity:0.38;fill:#2C3E4F;}
	.st1{fill:none;stroke:#2C3E4F;stroke-width:4.0425;stroke-linecap:round;stroke-miterlimit:10;}
	.st2{fill:none;stroke:#2C3E4F;stroke-width:3.9812;stroke-linecap:round;stroke-miterlimit:10;}
	.st3{fill:#2C3E4F;}
	.st4{fill:#DC268F;}
</style>
<g>
	<path class="st0" d="M124.4,81.8"/>
	<path class="st1" d="M92.4,46.8"/>
	<g>
		<path d="M133.5,93c-1.1,0-2-0.9-2-2V67.5c0-1.1,0.9-2,2-2s2,0.9,2,2V91C135.4,92.1,134.6,93,133.5,93z"/>
	</g>
	<path class="st2" d="M120.2,62.7"/>
	<path class="st2" d="M144.8,62"/>
	<path d="M109,74.8c0-0.5-0.1-0.9-0.1-1.4c-0.4-2.2-1.3-4.2-2.1-6.3c-0.4-1-1.5-1.6-2.6-1.2c-1,0.4-1.6,1.5-1.2,2.6
		c0.7,1.9,1.7,3.9,2.1,5.9c0.6,3.5-2.4,6.7-5.8,6.7c-8.6,0-17.2-0.1-25.8-0.1c-12.6,0-25.2,0.1-37.8,0.1c-3.2,0-5.8-2.6-5.9-5.8
		v-0.2c0-0.1,0-0.2,0-0.2c0,0,0,0,0,0V73c0-1.1-0.9-2-2-2s-2,0.9-2,2v15.2c0,1.3-0.1,2.3-0.4,3.2c-0.4,1-1.2,1.6-2.6,1.9
		c-1.5,0.3-3.3,0.3-5,0.2c-0.7,0-1.4-0.1-2.1-0.1c-1.1,0-2,0.9-2,2c0,1.1,0.9,2,2,2c0.6,0,1.2,0,1.9,0.1c0.8,0,1.6,0.1,2.4,0.1
		c1.2,0,2.5-0.1,3.7-0.3c2.6-0.6,4.4-2,5.4-4.3c0.7-1.6,0.7-3.3,0.7-4.7V83c1.6,1.2,3.7,2,5.9,2c6.2,0,12.4,0,18.6,0
		c7.2,0,14.4,0,21.6,0c7.8,0,15.6,0,23.3,0c2.9,0,5.7-1.5,7.6-3.7C108.4,79.4,109.1,77.2,109,74.8z"/>
	<g>
		<path d="M91.3,21.1c-0.8,0-1.5-0.4-1.8-1.2c-0.4-1,0-2.2,1-2.6l13-5.6c1-0.4,2.2,0,2.6,1c0.4,1,0,2.2-1,2.6l-13,5.6
			C91.8,21,91.6,21.1,91.3,21.1z"/>
	</g>
	<circle cx="37.5" cy="35" r="2.3"/>
	<circle cx="42.1" cy="35" r="2.3"/>
	<circle cx="66.7" cy="91.2" r="2.3"/>
	<circle cx="71.4" cy="91.2" r="2.3"/>
	<circle class="st3" cx="122.4" cy="34.7" r="2.3"/>
	<circle class="st3" cx="127" cy="34.7" r="2.3"/>
	<circle cx="122.4" cy="34.7" r="2.3"/>
	<circle cx="127" cy="34.7" r="2.3"/>
	<circle cx="28" cy="67.2" r="2.3"/>
	<circle cx="76" cy="24.9" r="2.3"/>
	<circle cx="124.8" cy="30" r="2.3"/>
	<path class="st1" d="M92.4,46.8"/>
	<g>
		<path d="M91.3,21.1c-0.8,0-1.5-0.4-1.8-1.2c-0.4-1,0-2.2,1-2.6l13-5.6c1-0.4,2.2,0,2.6,1c0.4,1,0,2.2-1,2.6l-13,5.6
			C91.8,21,91.6,21.1,91.3,21.1z"/>
	</g>
	<circle cx="37.5" cy="35" r="2.3"/>
	<circle cx="42.1" cy="35" r="2.3"/>
	<circle class="st3" cx="122.4" cy="34.7" r="2.3"/>
	<circle class="st3" cx="127" cy="34.7" r="2.3"/>
	<circle cx="122.4" cy="34.7" r="2.3"/>
	<circle cx="127" cy="34.7" r="2.3"/>
	<circle cx="76" cy="24.9" r="2.3"/>
	<circle cx="124.8" cy="30" r="2.3"/>
	<path class="st1" d="M92.4,46.8"/>
	<circle cx="122.4" cy="34.7" r="2.3"/>
	<circle cx="127" cy="34.7" r="2.3"/>
	<path d="M127.8,75.4c-0.3-1.7-0.9-3.4-2.1-4.7c-2.1-2.4-4.8-2.9-5.8-3c-4.8-0.4-9.1,3.1-9.6,8c-0.4,4.8,3.1,9.1,8,9.6
		c0,0,0,0,0.1,0c0,0,0.1,0,0.1,0h5.5c0,1.2,0,2.1,0,2.1c0,2-0.7,4.5-2.9,5.1c-0.9,0.3-1.8,0.2-2.7,0.2c-1.7,0-3.4-0.1-5.2-0.1
		c-0.6,0-1.3,0-1.9,0.3c-0.6,0.3-1,1-1,1.7c0,0.7,0.4,1.4,1,1.7c0.6,0.3,1.2,0.3,1.9,0.3c2.4,0,4.8,0.1,7.2,0
		c2.5-0.1,4.5-1.2,5.9-3.2c1.1-1.6,1.8-3.7,1.8-6.1c0-1.5,0-3,0-4.5C127.9,80.5,128.2,77.8,127.8,75.4z M118.4,81.2
		c-0.3,0-0.5,0-0.6-0.1c-2.3-0.5-3.9-2.7-3.6-5.1c0.2-2.7,2.6-4.7,5.3-4.4c0.5,0,2.1,0.3,3.2,1.7c0.8,0.9,1.1,1.9,1.2,2.6
		c0,0,0,2.6,0,5.3C123.9,81.4,120,81.3,118.4,81.2z"/>
	<path d="M143.6,35.2c-0.1-0.3-0.1-0.6-0.2-0.9c-0.6-1.8-1.3-3.6-2-5.4c-0.4-1-1.5-1.6-2.6-1.2c-1,0.4-1.6,1.5-1.2,2.6
		c0.9,2.5,2.6,5.4,2,8.2c-0.6,2.6-3.1,4.4-5.7,4.4h-18.6h-0.7c-3.2,0-5.6-2.6-5.9-5.7c-0.3-3-1.5-5.9-3.9-7.9c-2-1.6-4.6-2.2-7-3
		c-0.8-0.3-1.6-0.5-2.3-0.8l15.6-6.1c1-0.4,1.5-1.6,1.1-2.6c-0.4-1-1.6-1.5-2.6-1.1l-20.5,8c-0.4,0.2-0.8,0.5-1,0.8
		c-0.1,0.1-0.2,0.3-0.2,0.4c-0.4,1,0.2,2.1,1.2,2.5c3.6,1.2,7.2,2.5,10.8,3.8c2.6,0.9,4.7,2.8,4.7,5.7c0,3.2-2.6,5.9-5.9,5.9H88
		c0-2.1,0.2-4.3-0.2-6.4c-0.3-1.7-0.9-3.4-2.1-4.7c-2.1-2.4-4.8-2.9-5.8-3c-4.8-0.4-9.1,3.1-9.6,8c-0.2,2.3,0.5,4.4,1.7,6.1
		c-1.1,0-2.2,0-3.3,0c-2,0-4.1-0.7-5.2-2.4c-0.5-0.7-0.8-1.8-0.9-2.7v-5.5c0-1.1-0.9-2-2-2s-2,0.9-2,2v6.5c-0.8,2.3-3,4.1-5.6,4.1
		H24.6c-3.2,0-5.9-2.6-5.9-5.9c0-2.7,1.8-5,4.4-5.7c0.2,0,0.3-0.1,0.4-0.2l12.6-4.3c0,0,0,0,0,0l3.6-1.2l6.3,2.2l0,0c0,0,0,0,0.1,0
		c1,0.4,2.1-0.2,2.5-1.2c0.3-1-0.2-2.1-1.2-2.5l0,0L41.8,22v-2.8c1.3-0.3,3-1,4.4-2.5c2.2-2.3,2.4-5,2.4-6.1c0-4.9-4-8.8-8.8-8.8
		c-4.9,0-8.8,4-8.8,8.8c0,1.1,0.9,2,2,2s2-0.9,2-2c0-2.7,2.2-4.9,4.9-4.9c2.7,0,4.9,2.2,4.9,4.9c0,0.5-0.1,2.1-1.4,3.4
		c-1.3,1.4-3.1,1.5-3.6,1.5c-1.1,0-2,0.9-2,2V22c-5.1,1.8-10.2,3.5-15.3,5.3c-3.7,1.3-6.8,3.7-7.6,7.8c-0.1,0.6-0.2,1.2-0.2,1.9
		c0,5.4,4.4,9.8,9.8,9.8h28.5c3.2,0,6.1-1.6,7.9-4c0.2,0.3,0.5,0.6,0.8,0.9c3.5,3.6,8.6,3.1,13.2,3.1h23.9c3.2,0,6.1-1.6,7.9-4
		c1.8,2.4,4.6,4,7.9,4h19.3C139.9,46.8,144.7,41,143.6,35.2z M79.6,32.7c0.5,0,2.1,0.3,3.2,1.7c0.8,0.9,1.1,1.9,1.2,2.6
		c0,0,0,2.6,0,5.3c0,0.2-3.9,0.1-5.5,0c-0.3,0-0.5,0-0.6-0.1c-2.3-0.5-3.9-2.7-3.6-5.1C74.5,34.5,76.9,32.5,79.6,32.7z"/>
	<path class="st4" d="M62.7,34.4V32c-0.1-1-0.9-1.8-2-1.8c-1.1,0-2,0.9-2,2v6.5c-0.8,2.3-3,4.1-5.6,4.1H24.6c-3.2,0-5.9-2.6-5.9-5.9
		c0-2.7,1.8-5,4.4-5.7c0.2,0,0.3-0.1,0.4-0.2l12.6-4.3c0,0,0,0,0,0l3.6-1.2l6.3,2.2l0,0c0,0,0,0,0.1,0c1,0.4,2.1-0.2,2.5-1.2
		c0.3-1-0.2-2.1-1.2-2.5l0,0L41.8,22v-2.8c1.3-0.3,3-1,4.4-2.5c2.2-2.3,2.4-5,2.4-6.1c0-4.9-4-8.8-8.8-8.8c-4.9,0-8.8,4-8.8,8.8
		c0,1.1,0.9,2,2,2s2-0.9,2-2c0-2.7,2.2-4.9,4.9-4.9c2.7,0,4.9,2.2,4.9,4.9c0,0.5-0.1,2.1-1.4,3.4c-1.3,1.4-3.1,1.5-3.6,1.5
		c-1.1,0-2,0.9-2,2V22c-5.1,1.8-10.2,3.5-15.3,5.3c-3.7,1.3-6.8,3.7-7.6,7.8c-0.1,0.6-0.2,1.2-0.2,1.9c0,5.4,4.4,9.8,9.8,9.8h28.5
		c3.2,0,6.1-1.6,7.9-4c0,0,1.7-2,1.7-7.7C62.7,34.8,62.7,34.6,62.7,34.4z"/>
	<g>
		<path d="M142,64.4c-0.5,0-1-0.2-1.4-0.6c0,0-3.7-4.1-8.2-4.1c0,0,0,0,0,0c-2.6,0-5.1,1.4-7.5,4.1c-0.7,0.8-1.9,0.9-2.7,0.2
			c-0.8-0.7-0.9-1.9-0.2-2.7c3.1-3.5,6.6-5.3,10.3-5.3c3.1,0,5.8,1.3,7.7,2.6v-3.2c0-1,0.8-1.9,1.9-1.9s1.9,0.8,1.9,1.9v7.2
			c0,0.8-0.5,1.5-1.2,1.8C142.4,64.3,142.2,64.4,142,64.4z"/>
	</g>
</g>
</svg>
